HIERARCHY
	ROOT pelvis
	{
		OFFSET 0 0 0 
		CHANNELS 6 Xposition Yposition Zposition Zrotation Xrotation Yrotation
		JOINT lfemur_phantom
		{
			OFFSET 0 0.0899607 0 
			CHANNELS 3 Zrotation Xrotation Yrotation
			JOINT lfemur
			{
				OFFSET 0 0 -0.426035 
				CHANNELS 3 Zrotation Xrotation Yrotation
				JOINT ltibia
				{
					OFFSET 0 0 -0.409933 
					CHANNELS 3 Zrotation Xrotation Yrotation
					JOINT lfoot
					{
						OFFSET 0.105631 0 0.00135511 
						CHANNELS 3 Zrotation Xrotation Yrotation
						End Site
						{
							OFFSET 0.0352103 0 0.000451703
						}
					}
				}
			}
		}
		JOINT rfemur_phantom
		{
			OFFSET 0 -0.0899607 0 
			CHANNELS 3 Zrotation Xrotation Yrotation
			JOINT rfemur
			{
				OFFSET 0 0 -0.430137 
				CHANNELS 3 Zrotation Xrotation Yrotation
				JOINT rtibia
				{
					OFFSET 0 0 -0.390377 
					CHANNELS 3 Zrotation Xrotation Yrotation
					JOINT rfoot
					{
						OFFSET 0.106801 0 -0.00121178 
						CHANNELS 3 Zrotation Xrotation Yrotation
						End Site
						{
							OFFSET 0.0356003 0 -0.000403927
						}
					}
				}
			}
		}
		JOINT lowerback_phantom
		{
			OFFSET -0.05 0 0.107967 
			CHANNELS 3 Zrotation Xrotation Yrotation
			JOINT lowerback
			{
				OFFSET 0.0167886 0 0.161801 
				CHANNELS 3 Zrotation Xrotation Yrotation
				JOINT upperback
				{
					OFFSET 0 0 0 
					CHANNELS 3 Zrotation Xrotation Yrotation
					JOINT lclavicle_phantom
					{
						OFFSET 0 0 0.199349 
						CHANNELS 3 Zrotation Xrotation Yrotation
						JOINT lclavicle
						{
							OFFSET 0 0.164108 -0.0174105 
							CHANNELS 3 Zrotation Xrotation Yrotation
							JOINT lhumerus
							{
								OFFSET 0 0 -0.275026 
								CHANNELS 3 Zrotation Xrotation Yrotation
								JOINT lradius
								{
									OFFSET 0 0 -0.248775 
									CHANNELS 3 Zrotation Xrotation Yrotation
									End Site
									{
										OFFSET 0 0 -0.082925
									}
								}
							}
						}
					}
					JOINT rclavicle_phantom
					{
						OFFSET 0 0 0.199349 
						CHANNELS 3 Zrotation Xrotation Yrotation
						JOINT rclavicle
						{
							OFFSET 0 -0.165322 -0.0298984 
							CHANNELS 3 Zrotation Xrotation Yrotation
							JOINT rhumerus
							{
								OFFSET 0 0 -0.273337 
								CHANNELS 3 Zrotation Xrotation Yrotation
								JOINT rradius
								{
									OFFSET 0 0 -0.254845 
									CHANNELS 3 Zrotation Xrotation Yrotation
									End Site
									{
										OFFSET 0 0 -0.0849483
									}
								}
							}
						}
					}
					JOINT LowerNeck_phantom
					{
						OFFSET 0 0 0.199349 
						CHANNELS 3 Zrotation Xrotation Yrotation
						JOINT LowerNeck
						{
							OFFSET -0.0127292 -0.000602123 0.105365 
							CHANNELS 3 Zrotation Xrotation Yrotation
							End Site
							{
								OFFSET -0.00424307 -0.000200708 0.0351217
							}
						}
					}
				}
			}
		}
	}
MOTION
Frames:	13
Frame Time:	0.0166667
0.0238906 0.890843 1.66533e-016 85.9187 -37.8646 81.9895 17.3991 1.81471 2.21419 18.1151 0.972949 2.97128 -3.41744 -10.1719 26.3175 1.74045e-006 1.53374e-006 10.825 -7.34776 -8.09849 6.91422 -31.6749 -5.34878 8.59134 5.22184 7.45801 9.85071 -1.18783e-006 -2.27277e-007 26.43 0.0730869 0.579973 2.35363 1.35152 2.25713 -0.114393 -0 0 -0 -2.43613 -9.89268 -0.418782 17.3481 26.3846 -4.7466 1.06818 1.43605 -126.649 9.98017e-006 3.03711 -15.0761 4.43243 7.5325 -0.582183 15.7793 -31.4506 10.9536 8.06491 10.5311 -127.786 4.0485e-006 5.61333 -3.57221 -0.94542 2.9363 32.3761 21.4136 -22.8632 -65.429 
0.0240393 0.890831 -0.000338 85.9001 -37.8509 81.9627 17.2234 1.79429 2.28646 18.2724 0.965979 2.9229 -3.41643 -10.17 26.3194 -1.11722e-007 1.20331e-006 10.81 -7.34888 -8.12079 6.96807 -31.6851 -5.33125 8.5603 5.20517 7.43326 9.84834 -2.04516e-006 1.57915e-006 26.4298 0.161372 0.56911 2.2508 1.40785 2.26353 -0.122122 -0 0 -0 -2.4118 -9.94431 -0.416734 17.4015 26.45 -4.80311 0.850039 1.14426 -126.611 -2.71664e-006 2.64802 -15.2796 4.42182 7.51146 -0.57917 15.8874 -31.5494 10.8291 8.07963 10.5486 -127.791 3.05628e-005 5.70639 -3.57956 -0.976437 2.84314 32.3706 21.3782 -22.5659 -65.2408 
0.024255 0.890825 -0.000682 85.8874 -37.835 81.9295 17.1926 1.79429 2.35453 18.2847 0.958802 2.89914 -3.42188 -10.1714 26.2942 -2.73012e-006 -1.74507e-006 10.8204 -7.37003 -8.14166 7.03576 -31.6985 -5.31249 8.52635 5.20709 7.43711 9.85221 8.1159e-007 -1.83801e-006 26.4226 0.222202 0.53743 2.13969 1.5044 2.30594 -0.150724 -0 0 -0 -2.37631 -9.99378 -0.412617 17.2949 26.4917 -4.70467 0.880663 1.18494 -126.625 3.97847e-006 2.79838 -15.2874 4.39677 7.47201 -0.57287 16.0072 -31.6076 10.7449 8.12632 10.6061 -127.804 -1.29667e-007 5.68383 -3.59844 -0.971719 2.77386 32.4103 21.3121 -22.2708 -65.0766 
0.0244823 0.890819 -0.001002 85.8827 -37.8102 81.9122 17.2094 1.79955 2.39521 18.2432 0.955545 2.89634 -3.42752 -10.1729 26.2677 1.25904e-006 5.23616e-007 10.817 -7.38409 -8.15122 7.10124 -31.7289 -5.29101 8.48254 5.20732 7.43793 9.85395 -1.29751e-006 2.08986e-006 26.4257 0.310603 0.526573 2.03494 1.57 2.31538 -0.176966 -0 0 -0 -2.34529 -10.0318 -0.408759 17.2028 26.5327 -4.60998 0.921667 1.23945 -126.64 5.25507e-006 2.93631 -15.2688 4.38156 7.45156 -0.569326 16.0825 -31.6505 10.6387 8.14653 10.6308 -127.81 -9.61353e-006 5.70189 -3.65777 -0.970798 2.72222 32.4425 21.2325 -21.9869 -64.9287 
0.0247386 0.890807 -0.001349 85.8705 -37.7767 81.8785 17.2485 1.80496 2.45262 18.1694 0.948172 2.88651 -3.43069 -10.1717 26.2496 1.56005e-005 2.91279e-006 10.8047 -7.45553 -8.18005 7.17628 -31.7161 -5.26193 8.44086 5.21464 7.44474 9.84038 1.40558e-006 6.34068e-007 26.444 0.418482 0.513847 1.94463 1.60506 2.30615 -0.201542 -0 0 -0 -2.32384 -10.0464 -0.405598 17.1487 26.5513 -4.48496 0.976175 1.31176 -126.661 -5.24623e-006 3.04861 -15.2282 4.36827 7.44274 -0.566924 16.1629 -31.6751 10.5303 8.16944 10.6593 -127.816 1.37339e-006 5.67038 -3.68612 -0.961131 2.67307 32.4683 21.1488 -21.6781 -64.7759 
0.0249993 0.890788 -0.001648 85.8577 -37.7299 81.8565 17.2937 1.8075 2.48997 18.0767 0.942217 2.88413 -3.43368 -10.1716 26.2342 -5.23546e-006 2.30295e-006 10.7917 -7.54062 -8.20727 7.23663 -31.6943 -5.2338 8.40357 5.2182 7.44493 9.82257 -9.64931e-007 8.72069e-007 26.4575 0.523644 0.490228 1.85469 1.64209 2.29527 -0.236969 -0 0 -0 -2.31861 -10.047 -0.40471 17.1411 26.5547 -4.34456 0.980177 1.31639 -126.676 8.12117e-006 3.0415 -15.1862 4.3562 7.43718 -0.564933 16.2247 -31.6716 10.427 8.18213 10.6765 -127.815 1.00206e-005 5.66016 -3.72513 -0.948794 2.6444 32.5042 21.0327 -21.3739 -64.6419 
0.0252622 0.89077 -0.001861 85.8458 -37.6716 81.8472 17.3096 1.80664 2.51347 18.0079 0.93554 2.8754 -3.43778 -10.1811 26.2295 1.79271e-005 -5.26428e-006 10.7832 -7.62968 -8.22866 7.27517 -31.6701 -5.21356 8.37942 5.21707 7.43906 9.80726 -5.04963e-007 2.55393e-008 26.4586 0.61835 0.456742 1.75842 1.68089 2.29238 -0.274693 -0 0 -0 -2.31109 -10.0532 -0.403642 17.1802 26.5604 -4.20936 0.91889 1.2341 -126.675 -3.2036e-006 2.90484 -15.1888 4.3454 7.42427 -0.562555 16.2905 -31.6281 10.3246 8.18246 10.6799 -127.808 -5.75308e-006 5.64323 -3.77117 -0.922863 2.6073 32.543 20.894 -21.0551 -64.5357 
0.025528 0.89076 -0.001973 85.8388 -37.6074 81.85 17.2978 1.80683 2.52902 17.9684 0.92601 2.85283 -3.4426 -10.2004 26.2377 -2.33794e-007 2.10649e-006 10.7813 -7.70753 -8.23816 7.29742 -31.6625 -5.20208 8.36372 5.2151 7.43375 9.79839 -7.03516e-006 3.41335e-007 26.4521 0.703409 0.424306 1.65324 1.72222 2.29543 -0.309026 -0 0 -0 -2.28447 -10.0788 -0.399994 17.2199 26.5834 -4.07834 0.840007 1.12868 -126.661 -3.97937e-006 2.78723 -15.2149 4.33104 7.39733 -0.558665 16.3792 -31.5394 10.2268 8.17043 10.6671 -127.799 -7.01956e-006 5.61421 -3.81969 -0.912145 2.53171 32.564 20.7789 -20.7023 -64.4266 
0.0258043 0.890767 -0.002002 85.8444 -37.5442 81.865 17.2555 1.81556 2.54193 17.9657 0.912948 2.81312 -3.44734 -10.2272 26.2588 -1.06679e-006 1.43728e-006 10.785 -7.75914 -8.22752 7.31984 -31.6878 -5.19184 8.33942 5.21618 7.43674 9.80352 1.66298e-006 1.11361e-007 26.4382 0.789323 0.40829 1.54653 1.76597 2.29217 -0.348176 -0 0 -0 -2.23902 -10.119 -0.393576 17.218 26.6256 -3.93705 0.79026 1.0624 -126.647 1.06394e-005 2.79798 -15.2223 4.31735 7.36219 -0.554262 16.4853 -31.4189 10.1504 8.15117 10.6409 -127.8 2.64686e-006 5.61281 -3.8779 -0.914013 2.44665 32.5664 20.6708 -20.3327 -64.2883 
0.0261017 0.890783 -0.001982 85.8634 -37.4765 81.8928 17.2701 1.83831 2.53625 17.9029 0.90069 2.7858 -3.45256 -10.2513 26.2731 7.64222e-006 -1.23385e-006 10.8019 -7.82069 -8.20361 7.34786 -31.719 -5.17159 8.29745 5.22117 7.44693 9.81431 1.17618e-007 -1.83178e-006 26.432 0.87573 0.399763 1.43475 1.79656 2.29269 -0.393934 -0 0 -0 -2.19961 -10.1551 -0.388008 17.2392 26.6642 -3.77063 0.760164 1.02243 -126.634 1.27792e-005 2.81219 -15.2687 4.30319 7.32086 -0.549353 16.6486 -31.2786 10.0973 8.15138 10.6351 -127.816 2.41322e-005 5.55298 -3.87642 -0.868667 2.34392 32.5629 20.528 -19.911 -64.1376 
0.0264085 0.890801 -0.001925 85.8809 -37.4063 81.9109 17.2374 1.86026 2.54595 17.8849 0.885662 2.74232 -3.45464 -10.2735 26.2997 -6.57699e-006 4.23077e-006 10.8254 -7.8752 -8.17824 7.39676 -31.763 -5.1407 8.23475 5.22658 7.45757 9.82455 3.37691e-006 1.15334e-006 26.4354 0.950111 0.388471 1.34098 1.84224 2.29213 -0.445896 -0 0 -0 -2.16462 -10.1908 -0.383156 17.2581 26.7023 -3.601 0.736353 0.990628 -126.627 1.57701e-005 2.80101 -15.3125 4.28939 7.2729 -0.544019 16.8236 -31.1177 10.0547 8.15469 10.6318 -127.836 -3.24293e-006 5.53904 -3.8862 -0.795617 2.26314 32.5921 20.3014 -19.5041 -64.0472 
0.0267277 0.890805 -0.001828 85.8962 -37.3281 81.9253 17.2504 1.88502 2.54689 17.8122 0.872704 2.71403 -3.45673 -10.2916 26.3195 2.95169e-006 -6.136e-007 10.8462 -7.96937 -8.15987 7.44419 -31.771 -5.10476 8.17562 5.22836 7.45853 9.81872 1.03389e-006 -1.33912e-006 26.4506 1.01239 0.369684 1.24535 1.89479 2.29597 -0.483326 -0 0 -0 -2.138 -10.2199 -0.379511 17.2901 26.728 -3.44091 0.699652 0.941216 -126.629 2.14898e-006 2.75508 -15.3267 4.26417 7.21088 -0.53622 17.037 -30.9349 10.0062 8.15696 10.6284 -127.853 -5.84311e-007 5.51962 -3.88986 -0.747059 2.14436 32.6165 20.0973 -19.0666 -63.9747 
0.0270502 0.890801 -0.001661 85.9068 -37.2467 81.9424 17.1959 1.90148 2.54476 17.8037 0.860586 2.67777 -3.45724 -10.3121 26.3511 -2.16817e-007 4.23319e-007 10.8557 -8.05235 -8.13886 7.48057 -31.7805 -5.07455 8.12504 5.22591 7.45123 9.8052 3.19216e-006 6.94464e-007 26.4621 1.07208 0.349973 1.1481 1.95288 2.28875 -0.50994 -0 0 -0 -2.10997 -10.2404 -0.375271 17.3138 26.7464 -3.30756 0.664404 0.893654 -126.632 2.09432e-006 2.687 -15.3325 4.23331 7.14869 -0.527757 17.265 -30.744 9.9492 8.15233 10.6155 -127.87 -5.53645e-006 5.54168 -3.91031 -0.735203 2.01286 32.6118 19.9386 -18.6219 -63.8815 
